# xmcd
#
# Track frame offsets:
#	150
#	13957
#	24289
#	36856
#	48009
#	61338
#	72861
#	85758
#	102660
#	112131
#	125497
#	139070
#	152139
#	163582
#	178246
#	189258
#	200839
#	215279
#	227861
#	239502
#	249234
#	261594
#	272537
#	283153
#	296638
#	309250
#	322594
#	332462
#	343711
#	353100
#	362891
#	373787
#
# Disc length: 5183 seconds
# Revision: 3
# Processed by: cddbd v1.5.2PL0 Copyright (c) Steve Scherf et al.
# Submitted via: dBpowerAMP V12.0
#
DISCID=ef143d20
DTITLE=Various Artist - The Sun Blues Box 5 - Listenable Wax For The Southern Market
DYEAR=2013
DGENRE=Blues
TTITLE0=Walter Bradford and The Big City Four - Reward for My Baby
TTITLE1=Walter Bradford and The Big City Four - Love for My Baby
TTITLE2=Walter Bradford and The Big City Four - Too Blue to Cry
TTITLE3=L.C. Hubert and The Big City Four - Lucy Done Moved
TTITLE4=David "Honeyboy" Edwards - Sweet Home Chicago
TTITLE5=Albert Williams - Rumble Chillen
TTITLE6=Albert Williams - Hoo Doo Man (Memphis Al)
TTITLE7=Joe Hill Louis - When I Am Gone (She Treats Me Mean and Evil) [Unedited]
TTITLE8=Joe Hill Louis - Dorothy Mae
TTITLE9=Joe Hill Louis - Keep Your Arms Around Me
TTITLE10=Joe Hill Louis - I'm a Poor Boy
TTITLE11=Joe Hill Louis - She May Be Yours (Sweetest Gal in Town)
TTITLE12=Joe Hill Louis - Hydramatic Woman
TTITLE13=Joe Hill Louis - Tiger Man
TTITLE14=Joe Hill Louis and Albert Williams - Shine Boy
TTITLE15=Mose Vinson - Mistreatin' Boogie
TTITLE16=Mose Vinson - Worry You Off My Mind
TTITLE17=Mose Vinson - Reap What You Sow
TTITLE18=Mose Vinson - 44 Blues
TTITLE19=Mose Vinson - Come See Me (My Love Has Gone)
TTITLE20=Little Junior's Blue Flames - Feelin' Bad
TTITLE21=James Cotton - My Baby
TTITLE22=James Cotton - Straighten up Baby
TTITLE23=James Cotton - Cotton Crop Blues
TTITLE24=James Cotton - Hold Me in Your Arms
TTITLE25=Pat Hare - Cheating and Lying Blues (I'm Gonna Murder My Baby)
TTITLE26=Pat Hare - Bonus Pay
TTITLE27=Hot 'Shot' Love - Harpin' on It
TTITLE28=Houston Stokes - Blue and Lonesome
TTITLE29=Houston Stokes - Baby's Gone and Left Me
TTITLE30=Kenneth Banks - High
TTITLE31=Kenneth Banks - Blue Man
EXTD=
EXTT0=
EXTT1=
EXTT2=
EXTT3=
EXTT4=
EXTT5=
EXTT6=
EXTT7=
EXTT8=
EXTT9=
EXTT10=
EXTT11=
EXTT12=
EXTT13=
EXTT14=
EXTT15=
EXTT16=
EXTT17=
EXTT18=
EXTT19=
EXTT20=
EXTT21=
EXTT22=
EXTT23=
EXTT24=
EXTT25=
EXTT26=
EXTT27=
EXTT28=
EXTT29=
EXTT30=
EXTT31=
PLAYORDER=
